# xmcd
#
# Track frame offsets:
#	150
#	10274
#	21302
#	30234
#	42510
#	55508
#	57289
#	69194
#	79697
#	95092
#	96858
#	108415
#	109246
#	119924
#	132425
#	133099
#	145232
#	159293
#	160858
#	172630
#	181294
#	194966
#	206886
#	217147
#	227937
#	245512
#
# Disc length: 3416 seconds
#
# Revision: 1
# Processed by: cddbd v1.5.1PL2 Copyright (c) Steve Scherf et al.
# Submitted via: audiograbber 1.83.01
#
DISCID=7b0d561a
DTITLE=Jackie Wilson - The Lost Tapes
DYEAR=1900
DGENRE=Soul
TTITLE0=Say You Will
TTITLE1=So You Say You Wanna Dance
TTITLE2=I Hurt So Bad
TTITLE3=You Can Have Your Cake
TTITLE4=Shake A Hand
TTITLE5=Dialog
TTITLE6=Dancin' Man
TTITLE7=Tears Don't Care Who Cries Them
TTITLE8=A Kiss, A Thrill and Goodbye
TTITLE9=Dialog
TTITLE10=Baby, I Just Can't Help It
TTITLE11=Dialog
TTITLE12=Behind a Smile
TTITLE13=The Test of Time
TTITLE14=Dialog
TTITLE15=Twistin' and Shoutin'
TTITLE16=Another Hurt In My Heart
TTITLE17=Dialog
TTITLE18=My Best Friend's Girl
TTITLE19=The Joke
TTITLE20=There'll Be No Next Time
TTITLE21=So Wonderful
TTITLE22=The Way I Am (Unreleased Version)
TTITLE23=She's All Right (Unreleased Version)
TTITLE24=Better Play It Safe
TTITLE25=Etcetera, Etcetera
EXTD=
EXTT0=
EXTT1=
EXTT2=
EXTT3=
EXTT4=
EXTT5=
EXTT6=
EXTT7=
EXTT8=
EXTT9=
EXTT10=
EXTT11=
EXTT12=
EXTT13=
EXTT14=
EXTT15=
EXTT16=
EXTT17=
EXTT18=
EXTT19=
EXTT20=
EXTT21=
EXTT22=
EXTT23=
EXTT24=
EXTT25=
PLAYORDER=
